/* XPM */
static char *jbrickshooter[] = {
/* columns rows colors chars-per-pixel */
"60 60 210 2",
"   c #232323",
".  c #2D2D2D",
"X  c #333333",
"o  c #3A3A3A",
"O  c #6B0F0F",
"+  c #7D0101",
"@  c #6F1818",
"#  c #462727",
"$  c #4C2525",
"%  c #592121",
"&  c #6E3333",
"*  c #1B4F1B",
"=  c #016E01",
"-  c #0F600F",
";  c #007300",
":  c #007C00",
">  c #0C7D0C",
",  c #186518",
"<  c #264426",
"1  c #255425",
"2  c #336733",
"3  c #706C1E",
"4  c #77721D",
"5  c #49472C",
"6  c #504E2B",
"7  c #5F5C2B",
"8  c #787426",
"9  c #74713D",
"0  c #1B1B5F",
"q  c #27274A",
"w  c #252551",
"e  c #25255F",
"r  c #0E0E7A",
"t  c #101073",
"y  c #18187B",
"u  c #242464",
"i  c #333376",
"p  c #6D4545",
"a  c #775252",
"s  c #456845",
"d  c #527352",
"f  c #777552",
"g  c #4C4C78",
"h  c #820000",
"j  c #8D0000",
"k  c #8D0C0C",
"l  c #930101",
"z  c #9D0000",
"x  c #8E1818",
"c  c #A40000",
"v  c #AB0000",
"b  c #B60000",
"n  c #BE0000",
"m  c #B80909",
"M  c #C50000",
"N  c #CD0000",
"B  c #D30000",
"V  c #D90000",
"C  c #D30C0C",
"Z  c #DB0E0E",
"A  c #DD1212",
"S  c #DD1C1C",
"D  c #DD2121",
"F  c #DE2E2E",
"G  c #DD3333",
"H  c #D73D3D",
"J  c #DB3D3D",
"K  c #E12E2E",
"L  c #E13C3C",
"P  c #837D18",
"I  c #B64848",
"U  c #A16161",
"Y  c #BB6E6E",
"T  c #DB4343",
"R  c #C25050",
"E  c #DE5151",
"W  c #E05353",
"Q  c #DE6060",
"!  c #DF7777",
"~  c #E46F6F",
"^  c #E86E6E",
"/  c #E37272",
"(  c #E77E7E",
")  c #018601",
"_  c #008D00",
"`  c #009400",
"'  c #009F00",
"]  c #188018",
"[  c #00A600",
"{  c #00A900",
"}  c #09A309",
"|  c #00B400",
" . c #00BB00",
".. c #0CBB0C",
"X. c #02C002",
"o. c #0EC20E",
"O. c #12C412",
"+. c #1CC41C",
"@. c #21C521",
"#. c #2EC72E",
"$. c #2ECA2E",
"%. c #33C733",
"&. c #3DC53D",
"*. c #3DCB3D",
"=. c #48A948",
"-. c #50B450",
";. c #619961",
":. c #6EB16E",
">. c #43C843",
",. c #52CE52",
"<. c #60CE60",
"1. c #6FD56F",
"2. c #6ED96E",
"3. c #72D572",
"4. c #7BD67B",
"5. c #8B8515",
"6. c #8F8815",
"7. c #928B15",
"8. c #979017",
"9. c #9B9317",
"0. c #9E9618",
"q. c #A39B19",
"w. c #ADA51A",
"e. c #B5AD1B",
"r. c #B8AF1B",
"t. c #BCB41C",
"y. c #9B9521",
"u. c #9A942B",
"i. c #C8BF1E",
"p. c #CDC31F",
"a. c #D0C71F",
"s. c #CBC227",
"d. c #D4CA20",
"f. c #D9CF21",
"g. c #DBD120",
"h. c #E1D621",
"j. c #E5DA22",
"k. c #E9DE23",
"l. c #E7DD2D",
"z. c #EADF2C",
"x. c #EDE223",
"c. c #F0E524",
"v. c #F1E62C",
"b. c #EFE63F",
"n. c #F1E731",
"m. c #F2E833",
"M. c #F0E73E",
"N. c #F3E93F",
"B. c #A8A46C",
"V. c #C1BC5A",
"C. c #C3BE7B",
"Z. c #ECE242",
"A. c #EFE64C",
"S. c #F1E843",
"D. c #F0E74B",
"F. c #F3EA4C",
"G. c #EAE256",
"H. c #EEE659",
"J. c #F3EA56",
"K. c #F2EA58",
"L. c #CFC863",
"P. c #EDE568",
"I. c #EFE86B",
"U. c #ECE575",
"Y. c #F0E97E",
"T. c #050586",
"R. c #01018E",
"E. c #000092",
"W. c #00009D",
"Q. c #0C0C9F",
"!. c #18189E",
"~. c #0000A2",
"^. c #0101B0",
"/. c #0000BB",
"(. c #6161AA",
"). c #0000C2",
"_. c #0000CE",
"`. c #0000D5",
"'. c #0909D0",
"]. c #0000D9",
"[. c #0000E6",
"{. c #0000EB",
"}. c #0D0DED",
"|. c #0000F3",
" X c #0D0DF5",
".X c #1B1BF5",
"XX c #1212F8",
"oX c #1D1DF8",
"OX c #2626EF",
"+X c #3D3DED",
"@X c #2121F5",
"#X c #2E2EF6",
"$X c #2020F8",
"%X c #2E2EF8",
"&X c #3333F3",
"*X c #3D3DF4",
"=X c #4C4CCB",
"-X c #6E6EC5",
";X c #4343EF",
":X c #5252F2",
">X c #6060EF",
",X c #7575EF",
"<X c #6F6FF4",
"1X c #6F6FF8",
"2X c #7E7EF5",
"3X c #EDE782",
"4X c #EFE882",
"5X c #EAE588",
"6X c #F3EC83",
"7X c #F2EC8F",
/* pixels */
"    g -X,X<X<X<X<X<X<X<X<X<X<X<X<X1X1X1X1X1X1X1X<X>X=Xi     .   a Y ! / ~ ~ ~ ~ ~ ~ ~ ~ ~ ~ ~ ^ ^ ^ ^ ^ ^ ^ ^ Q I &     ",
"  (.2X<X:X;X+X+X+X+X+X+X+X*X*X*X*X*X*X*X*X*X*X*X*X*X*X@X!.  . U ( ~ E T H H H H H H J J J J J J J J L L L L L L L D x   ",
"g <X:XOX}.{.{.[.[.[.[.[.[.{.{.{.{.{.{.|.|.|.|.|.|.|. X X[.e p ~ W D C N N N N N N N N N N B B B B B B B V V V V Z Z N % ",
"=X:X@X{.{.{.{.{.[.[.[.[.[.{.{.{.{.{.{.{.|.|.|.|.|.|.|.|.[.Q.R W D B B N N N N N N N N N N N B B B B B B B V V V V V M k ",
"*X&X X{.{.{.{.{.[.[.[.[.[.[.{.{.{.{.{.{.|.|.|.|.|.|.|.|.].^.J G C B B B N N N N N N N N N N N B B B B B B B V V V V M l ",
"&X@X|.{.{.{.{.{.[.[.[.[.[.[.[.{.{.{.{.{.{.|.|.|.|.|.|.|.].~.G D B B B B N N N N N N N N N N N N B B B B B B V V V V n l ",
"#X@X|.|.{.{.{.{.[.[.[.[.[.[.[.[.{.{.{.{.{.{.|.|.|.|.|.|.].~.F D B B B B N N N N N N N N N N N N N B B B B B B V V V n j ",
"#X@X|.|.{.{.{.{.[.[.[.[.[.[.[.[.{.{.{.{.{.{.|.|.|.|.|.|.].~.F D B B B B N N N N N N N N N N N N N B B B B B B V V V n j ",
"#X@X|.|.{.{.{.{.{.[.[.[.[.[.[.[.[.{.{.{.{.{.{.|.|.|.|.|.].~.F D B B B B N N N N N N N N N N N N N N B B B B B V V V n j ",
"#X@X|.|.{.{.{.{.{.[.[.[.[.[.[.[.[.[.{.{.{.{.{.|.|.|.|.|.].~.F D B B B B N N N N N N N N N N N N N N N B B B B B V V n j ",
"%X@X|.|.{.{.{.{.{.[.[.[.[.[.[.[.[.[.{.{.{.{.{.{.|.|.|.|.].~.F D B B B B B N N N N N N N N N N N N N N B B B B B V V n j ",
"%X@X|.|.{.{.{.{.{.[.[.[.[.[.[.[.[.[.[.{.{.{.{.{.|.|.|.|.].~.F D B B B B B N N N N N N N N N N N N N N N B B B B V V n j ",
"%X@X|.|.|.{.{.{.{.[.[.[.[.[.[.[.[.[.[.{.{.{.{.{.{.|.|.|.].~.K D B B B B B N N N N N N N N N N N N N N N B B B B B V n j ",
"%X@X|.|.|.{.{.{.{.[.[.[.[.[.[.[.[.[.[.[.{.{.{.{.{.|.|.|.].~.K D B B B B B N N N N N N N N N N N N N N N B B B B B V n j ",
"%X@X|.|.|.{.{.{.{.{.[.[.[.[.[.[.[.[.[.[.{.{.{.{.{.|.|.|.].~.K D V B B B B N N N N N N N N N N N N N N N N B B B B V n j ",
"%X$X|.|.|.{.{.{.{.{.[.[.[.[.[.[.[.[.[.[.{.{.{.{.{.|.|.|.`.~.K D V B B B B N N N N N N N N N N N N N N N N B B B B V n j ",
"%X$X|.|.|.{.{.{.{.{.[.[.[.[.[.[.[.[.[.[.[.{.{.{.{.|.|.|.`.~.K D V B B B B B N N N N N N N N N N N N N N N B B B B B n j ",
"%X$X|.|.|.{.{.{.{.{.{.[.[.[.[.[.[.[.[.[.[.{.{.{.{.|.|.|.`.~.K D V B B B B B N N N N N N N N N N N N N N N B B B B B n j ",
"%X$X|.|.|.|.{.{.{.{.{.[.[.[.[.[.[.[.[.[.[.{.{.{.{.{.|.|.`.~.K D V V B B B B N N N N N N N N N N N N N N N B B B B B n j ",
"%X$X|.|.|.|.{.{.{.{.{.{.[.[.[.[.[.[.[.[.[.{.{.{.{.{.|.|.`.~.K D V V B B B B B N N N N N N N N N N N N N N B B B B B n j ",
"%X$X|.|.|.|.|.{.{.{.{.{.[.[.[.[.[.[.[.[.[.{.{.{.{.{.|.|.`.~.K D V V B B B B B N N N N N N N N N N N N N N N B B B B n j ",
"%X$X|.|.|.|.|.{.{.{.{.{.{.[.[.[.[.[.[.[.[.{.{.{.{.{.|.|.`.W.K D V V V B B B B B N N N N N N N N N N N N N N B B B B n j ",
"%X$X|.|.|.|.|.|.{.{.{.{.{.{.[.[.[.[.[.[.[.[.{.{.{.{.|.|.`.W.K D V V V B B B B B B N N N N N N N N N N N N N B B B B n j ",
"%X$X|.|.|.|.|.|.{.{.{.{.{.{.[.[.[.[.[.[.[.[.{.{.{.{.|.|.`.W.K D V V V B B B B B B N N N N N N N N N N N N N B B B B n j ",
"%XoX|.|.|.|.|.|.|.{.{.{.{.{.{.[.[.[.[.[.[.[.{.{.{.{.{.{._.W.K S V V V V B B B B B B N N N N N N N N N N N N B B B B b j ",
".XXX|.|.|.|.|.|.|.|.{.{.{.{.{.{.[.[.[.[.[.[.{.{.{.{.{.[./.R.S A V V V V B B B B B B B N N N N N N N N N N N B B B N c + ",
"'.|.|.|.|.|.|.|.|.|.{.{.{.{.{.{.{.[.[.[.[.[.{.{.{.{.{.`.W.r m B B V V V V B B B B B B B N N N N N N N N N N N B B b j O ",
"u `.].[.|.|.|.|.|.|.|.{.{.{.{.{.{.[.[.[.[.[.[.[.[.[._.~.E.q % n n N B V V V B B B B B B B N N N N N N N N N N M b j + # ",
"  y ^.^./.).).).).).).)././././././././././././.^.~.E.E.0     @ z z c v v v v v v v v v c c c c c c c c c c z l + + %   ",
"    w r R.E.E.E.E.E.E.E.E.E.E.E.E.R.R.R.R.R.R.R.R.T.t q     . . $ O + h h h h h h h h h h h + + + + + + + + + + O # . . ",
"    f C.5X6X4X4X3X4X4X6X6X6X6X6X6X6X6X6X6X6X6X6X6XU.V.9     .   d :.4.3.1.1.1.1.1.1.1.1.1.1.1.1.2.2.2.2.2.2.2.<.=.2     ",
"  B.7XY.P.H.G.G.G.G.G.G.G.G.H.H.H.H.H.H.K.K.K.K.K.K.J.S.u.  X ;.4.1.,.>.&.&.&.&.&.&.&.&.&.&.*.*.*.*.*.*.*.*.*.*.*.@.]   ",
"f 6XI.Z.l.j.j.j.h.h.h.h.j.j.j.j.k.k.k.k.x.x.x.x.x.v.n.v.h.7 s 1.,.@...| | | | | | | | | | | |  . . . . . . . . .o.o.| 1 ",
"L.I.Z.k.k.j.j.j.h.h.h.h.j.j.j.j.j.k.k.k.x.x.x.x.x.c.c.c.f.y.-.,.@. .| | | | | | | | | | | | | |  . . . . . . . . . .{ > ",
"H.G.z.k.k.j.j.j.j.h.h.h.h.j.j.j.j.j.k.k.k.x.x.x.x.c.c.c.f.q.*.%... .| | | | | | | | | | | | | | |  . . . . . . . .X.{ ) ",
"A.Z.k.k.k.j.j.j.j.h.h.h.h.h.j.j.j.j.j.k.k.k.x.x.x.x.c.c.d.q.%.@. . . .| | | | | | | | | | | | | | |  . . . . . . . .{ : ",
"A.b.x.k.k.k.j.j.j.h.h.h.h.h.j.j.j.j.j.j.k.k.k.x.x.x.c.c.d.0.#.@. . . .| | | | | | | | | | | | | | |  . . . . . . . .{ : ",
"D.b.x.k.k.k.j.j.j.h.h.h.h.h.h.j.j.j.j.j.k.k.k.x.x.x.c.c.d.0.#.@. . . .| | | | | | | | | | | | | | | |  . . . . . . .{ : ",
"D.b.x.k.k.k.j.j.j.j.h.h.h.h.h.h.j.j.j.j.j.k.k.k.x.x.x.c.d.0.#.@. . . .| | | | | | | | | | | | | | | | |  . . . . . .{ : ",
"D.b.x.x.k.k.j.j.j.j.h.h.h.h.h.h.j.j.j.j.j.j.k.k.x.x.x.c.d.0.$.@. . . .| | | | | | | | | | | | | | | | |  . . . . . .{ : ",
"F.M.x.x.k.k.j.j.j.j.h.h.h.h.h.h.h.j.j.j.j.j.k.k.x.x.x.c.d.0.$.@. . . .| | | | | | | | | | | | | | | | | |  . . . . .{ : ",
"F.M.x.x.k.k.j.j.j.j.h.h.h.h.h.h.h.h.j.j.j.j.j.k.k.x.x.x.d.0.$.@. . . .| | | | | | | | | | | | | | | | | |  . . . . .[ : ",
"F.M.x.x.k.k.j.j.j.j.h.h.h.h.h.h.h.h.j.j.j.j.j.k.k.x.x.x.d.0.$.@. . . . .| | | | | | | | | | | | | | | | | |  . . . .[ : ",
"F.M.x.x.k.k.j.j.j.j.j.h.h.h.h.h.h.h.h.j.j.j.j.k.k.x.x.x.d.0.$.@. . . . .| | | | | | | | | | | | | | | | | |  . . . .[ : ",
"F.M.x.x.k.k.j.j.j.j.j.h.h.h.h.h.h.h.h.j.j.j.j.k.k.k.x.x.d.0.$.@. . . . .| | | | | | | | | | | | | | | | | |  . . . .[ : ",
"F.N.x.x.k.k.k.j.j.j.j.h.h.h.h.h.h.h.h.j.j.j.j.j.k.k.x.x.d.0.$.@. . . . .| | | | | | | | | | | | | | | | | |  . . . .[ : ",
"F.N.x.x.x.k.k.j.j.j.j.h.h.h.h.h.h.h.h.j.j.j.j.j.k.k.x.x.d.0.$.@. . . . .| | | | | | | | | | | | | | | | | |  . . . .[ : ",
"F.N.x.x.x.k.k.j.j.j.j.j.h.h.h.h.h.h.h.h.j.j.j.j.k.k.x.x.a.0.$.@. . . . .| | | | | | | | | | | | | | | | | |  . . . .[ : ",
"F.N.x.x.x.k.k.j.j.j.j.j.h.h.h.h.h.h.h.h.j.j.j.j.k.k.x.x.a.0.$.@. . . . . .| | | | | | | | | | | | | | | | | |  . . .[ : ",
"F.N.c.x.x.x.k.k.j.j.j.j.j.h.h.h.h.h.h.h.j.j.j.j.k.k.x.x.a.0.$.@. . . . . .| | | | | | | | | | | | | | | | | |  . . .[ : ",
"F.N.c.x.x.x.k.k.j.j.j.j.j.j.h.h.h.h.h.h.j.j.j.j.k.k.x.x.a.9.$.@. . . . . . .| | | | | | | | | | | | | | | | |  . . .[ : ",
"F.N.c.x.x.x.k.k.k.j.j.j.j.j.h.h.h.h.h.h.j.j.j.j.k.k.k.x.a.9.$.@. . . . . . .| | | | | | | | | | | | | | | | |  . . .[ : ",
"F.N.c.c.x.x.x.k.k.k.j.j.j.j.j.h.h.h.h.h.h.j.j.j.k.k.k.x.a.9.$.@. . . . . . . .| | | | | | | | | | | | | | | |  . . .[ : ",
"F.N.c.c.x.x.x.k.k.k.j.j.j.j.j.j.h.h.h.h.h.j.j.j.k.k.k.x.p.9.$.@. . . . . . . . .| | | | | | | | | | | | | | |  . . .[ : ",
"F.N.c.c.x.x.x.x.k.k.k.j.j.j.j.j.h.h.h.h.h.j.j.j.j.k.k.k.i.7.$.+. . . . . . . . .| | | | | | | | | | | | | | |  . . .' ; ",
"M.m.x.c.c.x.x.x.x.k.k.k.j.j.j.j.j.h.h.h.h.j.j.j.j.k.k.h.r.5.+.O. . . . . . . . . .| | | | | | | | | | | | | | |  .| ` = ",
"s.x.x.x.c.x.x.x.x.x.k.k.k.j.j.j.j.j.h.h.h.h.j.j.j.k.j.p.8.4 }  . . . . . . . . . . .| | | | | | | | | | | | | | | [ : - ",
"7 a.d.h.x.x.x.x.x.x.k.k.k.k.j.j.j.j.h.h.h.h.j.j.h.g.i.0.5.5 1 [ { |  . . . . . . . . .| | | | | | | | | | | | { ' : = < ",
"  8 w.w.r.t.t.t.t.t.t.t.t.t.t.r.e.e.e.e.e.e.e.e.w.q.5.5.7   . , ) _ ` ` ` ` ` ` ` ` ` ` ` ` ` ` _ _ _ _ _ _ _ : = = *   ",
"    6 4 5.7.7.7.7.7.7.7.6.6.6.6.5.5.5.5.5.5.5.5.5.P 3 5   . . X < - = ; ; ; ; ; ; ; ; ; ; ; = = = = = = = = = = - < . o "
};
