/* XPM */
static char * jbrickshooter_xpm[] = {
"60 60 513 2",
"  	c None",
". 	c #4C4C78",
"+ 	c #6E6EC5",
"@ 	c #7575EF",
"# 	c #6F6FF2",
"$ 	c #6F6FF1",
"% 	c #6F6FF0",
"& 	c #6F6FF3",
"* 	c #6F6FF4",
"= 	c #6F6FF5",
"- 	c #6F6FF6",
"; 	c #6F6FF7",
"> 	c #6F6FF8",
", 	c #6F6FF9",
"' 	c #6E6EF9",
") 	c #6B6BF6",
"! 	c #6060EF",
"~ 	c #4C4CCB",
"{ 	c #333376",
"] 	c #775252",
"^ 	c #BB6E6E",
"/ 	c #DF7777",
"( 	c #E37272",
"_ 	c #E26F6F",
": 	c #E16F6F",
"< 	c #E36F6F",
"[ 	c #E46F6F",
"} 	c #E56F6F",
"| 	c #E66F6F",
"1 	c #E76F6F",
"2 	c #E86F6F",
"3 	c #E86E6E",
"4 	c #E86B6B",
"5 	c #DE6060",
"6 	c #B64848",
"7 	c #6E3333",
"8 	c #6161AA",
"9 	c #7E7EF5",
"0 	c #5151F1",
"a 	c #4343EF",
"b 	c #3D3DEE",
"c 	c #3D3DED",
"d 	c #3D3DEC",
"e 	c #3D3DF1",
"f 	c #3D3DF4",
"g 	c #3D3DF5",
"h 	c #3D3DF6",
"i 	c #3D3DF7",
"j 	c #3C3CF7",
"k 	c #3A3AF7",
"l 	c #2323F3",
"m 	c #18189E",
"n 	c #A16161",
"o 	c #E77E7E",
"p 	c #E36A6A",
"q 	c #DE5151",
"r 	c #DB4343",
"s 	c #D93D3D",
"t 	c #D83D3D",
"u 	c #D73D3D",
"v 	c #DA3D3D",
"w 	c #DB3D3D",
"x 	c #DD3D3D",
"y 	c #DE3D3D",
"z 	c #E03D3D",
"A 	c #E13D3D",
"B 	c #E13C3C",
"C 	c #E13A3A",
"D 	c #DE2424",
"E 	c #8E1818",
"F 	c #5454F3",
"G 	c #2626EF",
"H 	c #0D0DED",
"I 	c #0303EC",
"J 	c #0101E9",
"K 	c #0000E8",
"L 	c #0000E7",
"M 	c #0000E5",
"N 	c #0000E6",
"O 	c #0000EA",
"P 	c #0000EB",
"Q 	c #0000EC",
"R 	c #0000ED",
"S 	c #0000EE",
"T 	c #0000EF",
"U 	c #0000F0",
"V 	c #0000F2",
"W 	c #0000F3",
"X 	c #0000F4",
"Y 	c #0101F5",
"Z 	c #0505F6",
"` 	c #0E0EF7",
" .	c #25255F",
"..	c #6D4545",
"+.	c #E05454",
"@.	c #D92525",
"#.	c #D20D0D",
"$.	c #CF0303",
"%.	c #CE0000",
"&.	c #CD0000",
"*.	c #CC0000",
"=.	c #CA0000",
"-.	c #CB0000",
";.	c #CF0000",
">.	c #D00000",
",.	c #D10000",
"'.	c #D20000",
").	c #D30000",
"!.	c #D40000",
"~.	c #D60000",
"{.	c #D70000",
"].	c #D80101",
"^.	c #DA0505",
"/.	c #DB0F0F",
"(.	c #DB0D0D",
"_.	c #592121",
":.	c #5252F3",
"<.	c #2222F0",
"[.	c #0000E9",
"}.	c #0000F1",
"|.	c #0000F5",
"1.	c #0000F6",
"2.	c #0101F6",
"3.	c #0202F7",
"4.	c #0000E0",
"5.	c #0C0C9F",
"6.	c #C25050",
"7.	c #E05252",
"8.	c #D82222",
"9.	c #D40303",
"0.	c #D50000",
"a.	c #D80000",
"b.	c #D90000",
"c.	c #DA0202",
"d.	c #C60000",
"e.	c #8D0C0C",
"f.	c #3F3FF4",
"g.	c #3434F3",
"h.	c #0A0AF0",
"i.	c #0000DC",
"j.	c #0101B0",
"k.	c #DF3F3F",
"l.	c #DD3434",
"m.	c #D50A0A",
"n.	c #C30000",
"o.	c #960202",
"p.	c #3131F4",
"q.	c #0202F0",
"r.	c #0101F7",
"s.	c #0000D9",
"t.	c #0000A5",
"u.	c #DD3131",
"v.	c #DA0101",
"w.	c #BF0000",
"x.	c #910000",
"y.	c #2E2EF5",
"z.	c #2020F4",
"A.	c #0000F7",
"B.	c #0000A2",
"C.	c #DD2E2E",
"D.	c #DB2020",
"E.	c #DA0000",
"F.	c #8F0000",
"G.	c #2020F5",
"H.	c #2E2EF6",
"I.	c #2E2EF7",
"J.	c #DF2E2E",
"K.	c #DC2020",
"L.	c #0000D8",
"M.	c #2E2EF8",
"N.	c #E02E2E",
"O.	c #2020F6",
"P.	c #DD2020",
"Q.	c #0000A1",
"R.	c #8E0000",
"S.	c #2020F7",
"T.	c #0000D7",
"U.	c #DE2020",
"V.	c #BE0000",
"W.	c #E12E2E",
"X.	c #0000D6",
"Y.	c #BD0000",
"Z.	c #0000A0",
"`.	c #8D0000",
" +	c #2020F8",
".+	c #DF2020",
"++	c #0000D5",
"@+	c #BC0000",
"#+	c #00009F",
"$+	c #8C0000",
"%+	c #BB0000",
"&+	c #8B0000",
"*+	c #1D1DF8",
"=+	c #0000CE",
"-+	c #00009B",
";+	c #E02B2B",
">+	c #DE1D1D",
",+	c #B70000",
"'+	c #890000",
")+	c #1B1BF5",
"!+	c #1212F8",
"~+	c #0000BC",
"{+	c #03038E",
"]+	c #DB1B1B",
"^+	c #DD1212",
"/+	c #A60000",
"(+	c #7E0202",
"_+	c #0909D0",
":+	c #0000D1",
"<+	c #0E0E7A",
"[+	c #B80909",
"}+	c #6B0F0F",
"|+	c #242464",
"1+	c #0000D3",
"2+	c #000090",
"3+	c #27274A",
"4+	c #B40000",
"5+	c #7F0000",
"6+	c #462727",
"7+	c #18187B",
"8+	c #0000C2",
"9+	c #0000C4",
"0+	c #0000C0",
"a+	c #0000BE",
"b+	c #0000BA",
"c+	c #0000B9",
"d+	c #0000B8",
"e+	c #1B1B5F",
"f+	c #222222",
"g+	c #272727",
"h+	c #6F1818",
"i+	c #9A0000",
"j+	c #9E0000",
"k+	c #AC0000",
"l+	c #AB0000",
"m+	c #AA0000",
"n+	c #A90000",
"o+	c #A40000",
"p+	c #A30000",
"q+	c #A20000",
"r+	c #7E0000",
"s+	c #252551",
"t+	c #000094",
"u+	c #000092",
"v+	c #000091",
"w+	c #00008E",
"x+	c #00008C",
"y+	c #050586",
"z+	c #101073",
"A+	c #242424",
"B+	c #2D2D2D",
"C+	c #4C2525",
"D+	c #7A0505",
"E+	c #840000",
"F+	c #820000",
"G+	c #800000",
"H+	c #7D0000",
"I+	c #7C0000",
"J+	c #777552",
"K+	c #C3BE7B",
"L+	c #EAE588",
"M+	c #F0E985",
"N+	c #EFE882",
"O+	c #EDE782",
"P+	c #F0EA82",
"Q+	c #F1EB82",
"R+	c #F3EC83",
"S+	c #F4ED83",
"T+	c #F5EF82",
"U+	c #ECE575",
"V+	c #C1BC5A",
"W+	c #74713D",
"X+	c #527352",
"Y+	c #6EB16E",
"Z+	c #7BD67B",
"`+	c #72D572",
" @	c #6FD46F",
".@	c #6FD36F",
"+@	c #6FD56F",
"@@	c #6FD66F",
"#@	c #6FD76F",
"$@	c #6FD86F",
"%@	c #6FD96F",
"&@	c #6FDA6F",
"*@	c #6ED96E",
"=@	c #6BD96B",
"-@	c #60CE60",
";@	c #48A948",
">@	c #336733",
",@	c #A8A46C",
"'@	c #F2EC8F",
")@	c #F0E97E",
"!@	c #EDE568",
"~@	c #EBE35C",
"{@	c #EAE157",
"]@	c #E9E157",
"^@	c #E8E056",
"/@	c #EBE357",
"(@	c #EDE457",
"_@	c #EEE658",
":@	c #EFE758",
"<@	c #F1E958",
"[@	c #F3EA58",
"}@	c #F3EA56",
"|@	c #F1E843",
"1@	c #9A942B",
"2@	c #343434",
"3@	c #619961",
"4@	c #6AD46A",
"5@	c #51CD51",
"6@	c #43C843",
"7@	c #3DC53D",
"8@	c #3DC43D",
"9@	c #3DC73D",
"0@	c #3DC93D",
"a@	c #3DCA3D",
"b@	c #3DCB3D",
"c@	c #3DCC3D",
"d@	c #3DCD3D",
"e@	c #3CCD3C",
"f@	c #3ACC3A",
"g@	c #24C624",
"h@	c #188018",
"i@	c #EFE86B",
"j@	c #EBE142",
"k@	c #E7DD2D",
"l@	c #E4D925",
"m@	c #E4D923",
"n@	c #E3D822",
"o@	c #E2D722",
"p@	c #E0D521",
"q@	c #E1D621",
"r@	c #E4D922",
"s@	c #E5DA22",
"t@	c #E6DB22",
"u@	c #E7DC22",
"v@	c #E8DD23",
"w@	c #E9DE23",
"x@	c #EADF23",
"y@	c #ECE123",
"z@	c #EDE223",
"A@	c #EEE323",
"B@	c #EFE424",
"C@	c #F0E628",
"D@	c #F1E731",
"E@	c #F1E62F",
"F@	c #E0D622",
"G@	c #5F5C2B",
"H@	c #456845",
"I@	c #54CF54",
"J@	c #25C225",
"K@	c #0DBA0D",
"L@	c #02B502",
"M@	c #00B400",
"N@	c #00B300",
"O@	c #00B200",
"P@	c #00B100",
"Q@	c #00B500",
"R@	c #00B600",
"S@	c #00B700",
"T@	c #00B800",
"U@	c #00B900",
"V@	c #00BB00",
"W@	c #00BC00",
"X@	c #00BD00",
"Y@	c #01BD01",
"Z@	c #05BF05",
"`@	c #0FC20F",
" #	c #0DC10D",
".#	c #255425",
"+#	c #CFC863",
"@#	c #E8DD26",
"##	c #EBE023",
"$#	c #F0E524",
"%#	c #F0E526",
"&#	c #D9CF21",
"*#	c #9B9521",
"=#	c #50B450",
"-#	c #52CF52",
";#	c #22C122",
">#	c #03BA03",
",#	c #00BA00",
"'#	c #00BE00",
")#	c #01BE01",
"!#	c #02BF02",
"~#	c #00AD00",
"{#	c #0C7D0C",
"]#	c #EEE650",
"^#	c #EADF2C",
"/#	c #F1E626",
"(#	c #D7CE20",
"_#	c #A69F1B",
":#	c #3FCA3F",
"<#	c #34C734",
"[#	c #0ABC0A",
"}#	c #02C002",
"|#	c #00AB00",
"1#	c #028402",
"2#	c #EFE64C",
"3#	c #EEE441",
"4#	c #F1E624",
"5#	c #D4CA20",
"6#	c #A19918",
"7#	c #31C731",
"8#	c #00BF00",
"9#	c #00A800",
"0#	c #007F00",
"a#	c #EFE63F",
"b#	c #9E9718",
"c#	c #2EC72E",
"d#	c #20C420",
"e#	c #007D00",
"f#	c #F0E74B",
"g#	c #2EC82E",
"h#	c #F1E84B",
"i#	c #2EC92E",
"j#	c #F2E94C",
"k#	c #F0E73F",
"l#	c #20C520",
"m#	c #D3C920",
"n#	c #00A700",
"o#	c #F3EA4B",
"p#	c #2ECA2E",
"q#	c #9D9618",
"r#	c #007C00",
"s#	c #F2E83F",
"t#	c #D2C820",
"u#	c #20C620",
"v#	c #00A600",
"w#	c #F4EB4C",
"x#	c #2ECB2E",
"y#	c #D0C71F",
"z#	c #9D9518",
"A#	c #F3E93F",
"B#	c #20C720",
"C#	c #9C9517",
"D#	c #00A500",
"E#	c #9B9317",
"F#	c #007B00",
"G#	c #00A400",
"H#	c #CEC51F",
"I#	c #F3E93D",
"J#	c #C8BF1E",
"K#	c #968F16",
"L#	c #2BCA2B",
"M#	c #1DC61D",
"N#	c #009F00",
"O#	c #007700",
"P#	c #F0E63B",
"Q#	c #F2E833",
"R#	c #B8AF1B",
"S#	c #8B8417",
"T#	c #1BC31B",
"U#	c #12C412",
"V#	c #009100",
"W#	c #026E02",
"X#	c #CBC227",
"Y#	c #EAE023",
"Z#	c #CCC21F",
"`#	c #979017",
" $	c #77721D",
".$	c #09A309",
"+$	c #00A300",
"@$	c #007800",
"#$	c #0F600F",
"$$	c #E2D822",
"%$	c #EEE324",
"&$	c #DBD120",
"*$	c #8C8515",
"=$	c #49472C",
"-$	c #016F01",
";$	c #274227",
">$	c #787426",
",$	c #ADA51A",
"'$	c #BEB61D",
")$	c #BEB51C",
"!$	c #BDB41C",
"~$	c #BAB21C",
"{$	c #B9B01B",
"]$	c #B6AE1B",
"^$	c #B5AC1B",
"/$	c #B4AB1A",
"($	c #8A8415",
"_$	c #186518",
":$	c #008700",
"<$	c #008A00",
"[$	c #009600",
"}$	c #009700",
"|$	c #009500",
"1$	c #009400",
"2$	c #009300",
"3$	c #009200",
"4$	c #008E00",
"5$	c #006F00",
"6$	c #1B4F1B",
"7$	c #504E2B",
"8$	c #928B15",
"9$	c #918A15",
"0$	c #8F8815",
"a$	c #8D8715",
"b$	c #898214",
"c$	c #837D18",
"d$	c #706C1E",
"e$	c #254725",
"f$	c #046F04",
"g$	c #007400",
"h$	c #007300",
"i$	c #007200",
"j$	c #007100",
"k$	c #007000",
"l$	c #006E00",
"m$	c #006D00",
"n$	c #056805",
"    . + @ # $ $ % $ # & & * = = - ; ; > > > , ' ) ! ~ {         ] ^ / ( _ _ : _ < < < [ } | | 1 1 2 2 2 2 3 4 5 6 7     ",
"  8 9 ) 0 a b c d d c b b e e e e f f f g h i j j j k l m     n o p q r s t u u t s v v w x x y y y z z A B B B C D E   ",
". = F G H I J K L M N L K O P Q R S T U V W X X Y Z ` ` N  ...} +.@.#.$.%.&.*.=.-.*.&.%.;.>.,.'.).!.~.~.{.{.].^./.(.=._.",
"~ :.<.I R P O [.L N M L K [.O P Q R S T }.V W X |.1.2.3.4.5.6.7.8.9.,.;.%.%.*.-.=.*.&.%.%.;.>.,.'.).0.~.~.{.a.b.].c.d.e.",
"f.g.h.S R Q P [.K N M N L K [.O P Q R S U }.V W |.1.1.3.i.j.k.l.m.'.,.>.;.%.&.-.=.-.*.&.%.%.;.>.,.'.!.0.~.~.a.b.b.c.n.o.",
"p.l q.T S Q P [.K L N M N L K [.O P Q R T U }.W X |.1.r.s.t.u.D 9.).'.>.;.%.&.*.-.=.-.*.&.%.%.;.>.,.).!.0.~.{.a.b.v.w.x.",
"y.z.}.U S R P O K L N M N L K K [.O P Q S T U V W |.1.A.s.B.C.D.0.!.'.,.;.%.&.*.-.=.-.*.&.&.%.%.;.>.'.).!.~.~.a.b.E.w.F.",
"y.z.}.U T R P O K L N N M N L K [.O P Q R S U }.W X 1.A.s.B.C.D.0.!.).,.;.%.&.*.-.-.=.-.*.&.%.%.;.>.,.'.!.0.~.{.b.E.w.F.",
"y.G.V U T R P O [.K L N M N L L K [.O P Q R T U V X |.1.s.B.C.D.~.!.).,.;.%.%.&.*.-.=.-.*.*.&.%.%.;.>.,.).!.~.{.a.b.w.F.",
"H.G.V }.T R P O [.K L N M N N L K K [.O P Q S U }.W |.1.s.B.C.D.~.0.).,.;.%.%.&.*.-.=.-.-.*.&.&.%.%.;.>.'.!.0.~.a.b.w.F.",
"I.G.W }.T R Q O [.K L N N M N L L K [.O P Q R T }.V X 1.s.B.J.K.~.0.).,.>.%.%.&.*.-.-.=.-.*.*.&.%.%.;.>.,.).0.~.{.b.w.F.",
"I.G.W }.T R Q O [.K L N N M N N L L K [.O P Q S U V X |.L.B.J.K.~.0.).,.>.%.%.&.*.-.-.=.-.-.*.*.&.%.%.;.>.'.!.~.{.a.w.F.",
"M.G.W }.U S Q O [.K L L N M M N N L K [.[.P Q R T }.W |.L.B.N.K.~.0.!.'.>.%.%.&.*.*.-.=.=.-.-.*.&.%.%.;.>.,.).0.~.a.w.F.",
"M.O.W V U S Q P [.K K L N N M N N L L K [.O Q R T }.W X L.B.N.P.~.~.!.'.>.;.%.&.&.*.-.-.=.-.-.*.*.&.%.%.>.,.).0.~.{.w.F.",
"M.O.X V U S Q P O [.K L N N M M N L L K [.O P R S U V X L.Q.N.P.{.~.!.'.>.;.%.%.&.*.-.-.=.=.-.*.*.&.%.%.;.,.'.!.~.{.w.R.",
"M.S.X V U S R P O [.K L L N M M N N L K [.O P Q S U V X T.Q.N.U.{.~.!.'.,.;.%.%.&.*.*.-.=.=.-.-.*.&.%.%.;.>.'.!.~.{.V.R.",
"M.S.X W }.T R Q O [.K L L N N M N N L K K [.P Q S U V W T.Q.W.U.{.~.0.).,.>.%.%.&.*.*.-.-.=.-.-.*.&.&.%.;.>.'.!.~.~.V.R.",
"M.S.|.W }.T R Q P [.[.K L N N M M N L L K [.O Q S U }.W X.Q.W.U.a.~.0.).,.>.;.%.%.&.*.-.-.=.=.-.*.*.&.%.%.>.'.!.0.~.Y.R.",
"M.S.|.X V U S Q P O [.K L L N N M N N L K [.O Q R T }.W X.Z.W.U.a.{.~.!.'.>.;.%.%.&.*.*.-.-.=.-.-.*.&.%.%.>.,.).0.~.Y.`.",
"M. +1.X V }.T R Q P O [.K L L N M N N L K [.O Q R T }.W X.Z.W..+b.{.~.0.).,.>.;.%.%.&.*.*.-.=.-.-.*.&.%.%.>.,.).0.~.Y.`.",
"M. +1.|.W }.U S Q P O [.K K L N N M N L K [.O P R T }.V ++Z.W..+b.a.~.0.!.'.>.;.%.%.&.&.*.-.-.=.-.*.&.%.%.;.,.).0.~.@+`.",
"M. +1.|.X V U T R Q P O [.K L L N M N L K [.O P R T U V ++#+W..+b.a.{.~.!.).,.>.;.%.%.&.*.*.-.=.-.*.&.%.%.;.,.).!.~.@+$+",
"M. +A.1.X W }.U S R Q P O [.K L N M N N L K O P R T U }.++#+W..+E.b.{.~.0.!.'.,.>.;.%.%.&.*.-.=.-.-.*.&.%.;.,.).!.0.@+$+",
"M. +A.1.|.W V U T S Q P O [.K K L N M N L K O P R S U }.++#+W..+E.b.a.~.~.!.).'.>.;.%.%.&.&.*.-.=.-.*.&.%.;.,.'.!.0.%+&+",
"M.*+A.1.|.X W }.U T R Q P O [.K L N M N L K [.P Q S T S =+-+;+>+E.b.a.{.~.0.!.).,.>.;.%.%.&.*.-.=.-.*.&.%.;.>.'.).'.,+'+",
")+!+|.1.1.|.W V }.U S R Q P O [.K L N M N K [.P Q R T L ~+{+]+^+a.b.b.a.~.~.0.!.'.,.>.;.%.%.&.*.-.=.-.&.%.;.>.,.).*./+(+",
"_+U }.|.1.|.X W V }.T S R Q P O [.K L M N L [.O P R P :+-+<+[+!.0.a.b.a.{.~.~.0.).'.,.>.;.%.%.&.*.=.-.*.%.%.;.,.>.,+'+}+",
"|+1+s.K }.X X X W V U T S R Q P O K L N M L K K L 4.=+Q.2+3+_.%+w.*.0.{.{.{.~.~.!.).'.,.>.;.%.&.*.-.=.*.&.&.*.d.4+R.5+6+",
"  7+j.j.~+8+9+8+8+8+8+0+a+a+a+~+~+b+b+c+d+d+c+b+j.t.2+2+e+f+g+h+i+j+/+k+k+k+l+l+m+m+n+n+/+/+/+/+o+p+q+q+p+p+j+x.5+r+_.  ",
"    s+<+{+t+t+t+t+t+t+t+t+u+u+v+2+w+w+w+w+x+w+w+w+y+z+3+A+g+B+B+C+}+D+E+E+E+F+F+F+F+F+F+G+G+5+r+r+H+I+I+I+H+H+D+}+6+    ",
"    J+K+L+M+N+N+O+N+N+P+P+P+Q+R+R+S+S+S+T+T+T+T+T+U+V+W+f+f+B+f+X+Y+Z+`+ @ @.@ @ @+@+@@@@@#@#@#@$@%@%@%@&@*@=@-@;@>@    ",
"  ,@'@)@!@~@{@]@^@^@]@{@{@/@(@(@_@_@:@:@<@<@[@[@[@[@}@|@1@f+2@3@Z+4@5@6@7@8@8@8@8@7@9@9@9@9@0@a@a@b@b@c@d@e@e@e@f@g@h@  ",
"J+Q+i@j@k@l@m@n@o@p@q@o@n@r@s@t@u@v@w@x@y@z@A@A@B@C@D@E@F@G@H@#@I@J@K@L@M@N@O@P@O@O@N@Q@R@R@S@T@U@U@V@W@X@X@Y@Z@`@ #P@.#",
"+#i@j@@#u@s@r@r@o@q@p@o@n@r@r@s@t@u@v@w@##y@z@A@B@$#$#%#&#*#=#-#;#>#S@R@Q@M@O@O@P@O@N@M@Q@R@R@S@T@U@,#V@W@X@X@'#)#!#~#{#",
":@]#^#v@u@t@s@r@n@q@p@q@o@n@r@r@s@t@u@v@x@##y@z@B@$#$#/#(#_#:#<#[#T@S@R@R@M@N@O@P@O@O@N@M@Q@R@R@S@T@U@,#V@W@X@'#'#}#|#1#",
"2#3#x@w@v@t@s@r@n@o@q@p@q@o@n@r@r@s@t@u@w@x@##z@A@B@$#4#5#6#7#J@,#U@T@R@R@M@N@O@O@P@O@O@N@M@Q@R@R@S@U@U@,#W@X@X@'#8#9#0#",
"2#a###x@v@u@s@r@n@o@q@p@q@o@n@n@r@r@s@t@v@w@x@y@z@B@$#4#5#b#c#d#,#U@T@S@R@Q@N@O@O@P@O@O@N@N@M@Q@R@R@T@U@U@V@W@X@'#8#9#e#",
"f#a###x@w@u@s@r@n@o@q@q@p@q@o@n@r@r@s@t@u@v@x@##z@A@$#4#5#b#g#d#,#U@U@S@R@Q@N@O@O@O@P@O@O@N@M@Q@R@R@S@T@U@,#W@X@'#8#9#e#",
"f#a#y@x@w@u@s@r@r@n@o@q@p@q@o@o@n@r@r@s@t@u@w@x@y@A@B@$#5#b#g#d#V@U@U@S@R@Q@M@N@O@O@P@O@O@O@N@M@Q@R@R@S@U@U@V@X@X@'#9#e#",
"h#a#y@##w@u@s@r@r@n@o@q@p@q@q@o@n@n@r@r@s@t@v@x@##z@B@$#5#b#i#d#V@,#U@S@R@Q@M@N@O@O@P@O@O@O@N@N@M@Q@R@R@T@U@,#W@X@'#9#e#",
"j#k#z@##w@u@t@r@r@n@o@q@q@p@q@o@o@n@r@r@s@t@u@w@##y@A@$#5#b#i#l#W@,#U@S@R@Q@M@N@O@O@O@P@O@O@O@N@M@Q@R@R@S@U@,#V@X@'#9#e#",
"j#k#z@##w@u@t@r@r@n@o@q@q@p@q@q@o@o@n@r@r@s@t@v@x@y@A@B@m#b#i#l#W@,#U@S@R@Q@M@N@O@O@O@P@O@O@O@O@N@M@Q@R@R@T@U@V@X@X@n#e#",
"o#k#z@##x@v@t@r@r@n@o@o@q@p@p@q@q@o@n@r@r@s@t@u@w@##z@B@m#b#p#l#W@,#U@T@R@Q@M@N@O@O@O@P@P@O@O@O@N@M@M@R@R@S@U@,#W@X@n#e#",
"o#k#z@y@x@v@t@s@r@n@n@o@q@q@p@q@q@o@o@n@r@r@t@u@w@##z@A@m#b#p#l#W@V@U@T@R@R@M@N@N@O@O@O@P@O@O@O@O@N@M@Q@R@S@U@,#W@X@n#e#",
"o#k#A@y@x@v@t@s@r@r@n@o@q@q@p@p@q@o@o@n@r@r@s@u@v@x@y@A@m#q#p#l#X@V@U@T@R@R@Q@M@N@O@O@O@P@P@O@O@O@N@M@Q@R@S@T@U@V@X@n#r#",
"o#s#A@y@x@v@u@s@r@r@n@o@o@q@p@p@q@q@o@n@r@r@s@t@v@x@y@A@t#q#p#u#X@V@U@T@S@R@Q@M@N@O@O@O@P@P@O@O@O@N@M@Q@R@R@T@U@V@X@v#r#",
"w#s#A@z@##w@u@t@r@r@n@o@o@q@q@p@q@q@o@n@n@r@s@t@v@x@y@z@t#q#x#u#X@W@,#U@S@R@Q@M@N@O@O@O@O@P@O@O@O@N@N@M@R@R@T@U@V@W@v#r#",
"w#s#B@z@##w@u@t@s@r@r@n@o@q@q@p@p@q@o@o@n@r@r@t@v@x@##z@y#q#x#u#X@W@,#U@S@R@R@M@M@N@O@O@O@P@P@O@O@O@N@M@Q@R@T@U@,#W@v#r#",
"w#s#B@A@y@x@v@t@s@r@r@n@o@o@q@q@p@q@q@o@n@r@r@t@u@w@##z@y#z#x#u#X@X@V@U@T@R@R@Q@M@N@O@O@O@O@P@O@O@O@N@M@Q@R@S@U@,#W@v#r#",
"w#A#$#A@y@##w@u@t@s@r@r@n@o@o@q@p@q@q@o@n@r@r@t@u@w@##z@y#z#x#B#'#X@V@,#U@S@R@R@Q@M@N@O@O@O@P@O@O@O@N@M@Q@R@S@U@,#W@v#r#",
"w#A#$#B@z@##x@v@t@s@r@r@n@n@o@q@q@p@q@o@n@r@r@s@u@w@##y@y#C#x#B#'#X@W@,#U@T@R@R@Q@M@N@N@O@O@O@P@O@O@N@M@Q@R@S@U@,#V@D#r#",
"w#A#$#B@A@y@x@w@u@t@s@r@r@n@o@o@q@p@q@o@n@r@r@s@u@w@x@y@y#E#x#B#'#X@X@V@U@U@S@R@R@Q@M@N@O@O@O@P@O@O@N@M@Q@R@S@U@U@V@D#F#",
"w#A#4#$#A@z@##x@v@u@t@s@r@r@n@o@q@p@q@q@o@n@r@s@u@w@x@##y#E#x#B#8#'#X@W@,#U@T@S@R@R@Q@M@N@O@O@P@O@O@O@N@Q@R@S@U@U@,#G#F#",
"w#A#4#$#B@z@y@x@w@v@t@s@r@r@n@n@o@q@p@q@o@n@r@s@u@v@x@##H#E#x#B#8#'#X@W@V@U@U@T@R@R@Q@M@N@N@O@O@P@O@O@N@Q@R@S@T@U@,#G#F#",
"o#I#4#$#B@A@z@##x@w@u@t@s@r@r@n@o@q@p@q@o@n@r@s@t@v@w@v@J#K#L#M#8#'#X@X@W@,#U@U@S@R@R@Q@M@N@O@O@P@O@O@N@M@R@R@T@U@T@N#O#",
"P#Q#B@$#$#B@z@y@##x@v@u@t@s@r@r@n@o@q@p@q@n@r@s@t@u@w@q@R#S#T#U#'#'#'#X@W@V@,#U@T@S@R@R@Q@M@N@O@O@P@O@N@M@R@R@S@U@O@V#W#",
"X#Y#y@B@$#B@A@z@y@##w@v@u@t@s@r@r@n@o@p@q@o@r@r@s@u@s@Z#`# $.$,#,#X@'#X@X@W@V@,#U@T@S@R@R@Q@M@N@O@P@O@O@M@Q@R@S@R@+$@$#$",
"G@y#5#$$y@%$A@A@z@y@x@w@v@u@t@s@r@n@o@q@p@o@n@n@q@&$J#z#*$=$.#G#9#N@,#W@X@X@W@V@U@U@T@S@R@R@Q@N@O@O@P@O@N@N@N@~#N#r#-$;$",
"  >$,$,$R#'$'$'$)$!$!$~$~$~${$R#]$]$]$^$/$/$^$]$,$6#*$($G@    _$:$<$V#[$}$}$[$[$|$1$1$2$3$3$3$V#4$4$4$4$4$4$<$0#5$5$6$  ",
"    7$ $S#8$8$8$9$9$9$9$0$0$a$a$*$*$*$($($b$($($($c$d$=$        e$#$f$g$g$g$h$h$i$i$j$j$j$k$5$5$l$l$m$m$m$m$l$n$#$;$    "};
